<svg width="449" height="366" viewBox="0 0 449 366" fill="none" xmlns="http://www.w3.org/2000/svg">
<path fill-rule="evenodd" clip-rule="evenodd" d="M76.0013 39.6936L171.095 27.2395C188.939 24.9024 204.203 40.0079 202.053 57.8755L193.982 124.947C191.812 142.976 207.359 158.144 225.33 155.529L386.62 132.062C398.403 130.348 408.681 140.116 407.57 151.97L405.726 171.638C404.124 188.727 393.132 203.5 377.223 209.944L136.026 307.648C116.477 315.567 95.6379 299.501 98.322 278.581L107.396 207.855C109.714 189.795 94.2007 174.487 76.173 177.044L73.4531 177.43C55.5139 179.974 40.0377 164.821 42.203 146.833L52.2047 63.7398C53.7107 51.2286 63.5065 41.3301 76.0013 39.6936ZM254.667 107.514C273.449 121.223 299.787 117.11 313.496 98.3286C327.204 79.547 323.091 53.2086 304.31 39.5001C285.528 25.7916 259.19 29.9042 245.481 48.6858C231.773 67.4674 235.885 93.8058 254.667 107.514Z" fill="currentColor"/>
</svg>

